<svg xmlns="http://www.w3.org/2000/svg" version="1.0" width="220.000000pt" height="208.000000pt" viewBox="0 0 220.000000 208.000000" preserveAspectRatio="xMidYMid meet">

<g transform="translate(0.000000,208.000000) scale(0.100000,-0.100000)" fill="#1a9f61" stroke="none">
<path d="M522 1893 c-81 -76 -220 -207 -309 -291 l-163 -154 0 -412 c0 -315 3 -416 13 -428 10 -12 380 -349 567 -515 l48 -43 429 0 429 0 110 102 c61 57 199 186 307 287 l197 184 0 418 c0 236 -4 419 -9 421 -8 3 -116 104 -386 358 -44 42 -113 106 -154 143 l-73 67 -430 0 -429 0 -147 -137z m1216 -136 c124 -116 254 -239 289 -272 l63 -60 0 -390 -1 -390 -291 -273 -292 -272 -325 0 c-179 0 -363 3 -408 6 l-81 7 -291 264 -291 264 0 394 0 393 283 263 c155 145 287 268 293 274 7 6 152 9 418 7 l408 -2 226 -213z" fill="#1a9f61"/>
<path d="M1116 1919 c-10 -23 -2 -124 10 -124 13 0 16 43 6 95 -6 31 -11 40 -16 29z" fill="#1a9f61"/>
<path d="M1036 1874 l7 -46 -54 6 c-112 11 -122 11 -127 -3 -3 -8 0 -11 7 -7 6 4 19 3 28 -3 15 -8 14 -10 -12 -16 -17 -3 -40 -10 -51 -15 -16 -6 -27 -3 -42 13 -24 23 -42 15 -26 -11 10 -15 0 -23 -70 -60 -44 -24 -111 -68 -148 -98 -42 -34 -76 -54 -92 -54 -22 0 -26 -4 -26 -30 0 -33 -78 -162 -95 -156 -19 6 -45 -15 -45 -38 0 -29 10 -39 27 -25 10 9 13 8 13 0 0 -21 48 -61 74 -61 36 0 76 52 76 98 l0 37 -23 -39 c-31 -54 -71 -83 -92 -66 -19 16 -20 50 -1 50 7 0 19 14 26 30 7 17 26 49 41 70 16 22 29 44 29 48 0 5 11 14 25 20 14 6 25 17 25 24 1 20 127 114 213 159 82 43 234 87 317 91 38 2 50 7 50 19 0 9 -7 20 -16 23 -12 5 -15 14 -11 35 6 27 -7 51 -26 51 -4 0 -5 -21 -1 -46z m-566 -324 c0 -5 -7 -10 -16 -10 -8 0 -12 5 -9 10 3 6 10 10 16 10 5 0 9 -4 9 -10z" fill="#1a9f61"/>
<path d="M1190 1895 c0 -8 12 -12 30 -11 41 2 43 18 3 21 -21 2 -33 -2 -33 -10z" fill="#1a9f61"/>
<path d="M1277 1866 c-9 -13 -30 -30 -46 -37 -52 -23 -45 -36 27 -49 250 -46 475 -217 573 -434 19 -42 38 -76 43 -76 5 0 25 18 45 39 l37 40 19 -30 c20 -30 53 -55 61 -46 8 8 -56 96 -77 108 -26 13 -49 -4 -49 -37 0 -46 -17 -31 -59 49 l-42 82 43 37 c49 43 32 51 -25 12 l-38 -26 -34 39 c-26 30 -31 42 -23 56 14 27 5 42 -14 23 -16 -15 -22 -12 -83 34 -81 61 -166 106 -260 136 l-70 22 2 41 c2 47 -8 52 -30 17z m3 -36 c0 -5 -5 -10 -11 -10 -5 0 -7 5 -4 10 3 6 8 10 11 10 2 0 4 -4 4 -10z" fill="#1a9f61"/>
<path d="M590 1745 c0 -8 -7 -15 -15 -15 -8 0 -15 -7 -15 -15 0 -8 5 -15 10 -15 6 0 13 7 16 15 4 8 12 15 20 15 8 0 14 7 14 15 0 8 -7 15 -15 15 -8 0 -15 -7 -15 -15z" fill="#1a9f61"/>
<path d="M920 1744 c0 -17 22 -14 28 4 2 7 -3 12 -12 12 -9 0 -16 -7 -16 -16z" fill="#1a9f61"/>
<path d="M896 1640 c10 -72 13 -74 139 -65 142 9 147 9 165 4 10 -3 16 5 18 25 5 43 -10 50 -50 23 -29 -20 -51 -25 -132 -29 -102 -6 -126 2 -126 40 0 9 -5 24 -11 32 -7 11 -8 3 -3 -30z" fill="#1a9f61"/>
<path d="M1328 1644 c-5 -4 -8 -18 -8 -32 0 -25 -7 -26 -52 -7 -13 5 -18 2 -18 -9 0 -9 12 -18 28 -22 15 -3 53 -19 85 -36 63 -32 87 -31 87 5 0 13 5 28 10 33 12 12 3 47 -10 39 -4 -3 -11 -21 -14 -40 -4 -19 -9 -35 -12 -35 -3 0 -22 9 -44 20 -33 17 -39 25 -42 56 -2 20 -6 32 -10 28z" fill="#1a9f61"/>
<path d="M1510 1635 c0 -8 7 -15 15 -15 8 0 15 -4 15 -10 0 -5 7 -10 15 -10 8 0 15 5 15 10 0 6 -7 10 -15 10 -9 0 -18 7 -21 15 -4 8 -10 15 -15 15 -5 0 -9 -7 -9 -15z" fill="#1a9f61"/>
<path d="M817 1603 c-4 -3 -7 -15 -7 -25 0 -10 -16 -36 -36 -58 -20 -22 -32 -40 -27 -40 17 0 63 41 63 56 0 9 11 14 35 14 39 0 42 6 19 38 -15 22 -35 28 -47 15z m33 -17 c0 -3 -4 -8 -10 -11 -5 -3 -10 -1 -10 4 0 6 5 11 10 11 6 0 10 -2 10 -4z" fill="#1a9f61"/>
<path d="M1512 1568 c-14 -18 -28 -96 -14 -83 11 10 34 86 28 92 -2 2 -8 -2 -14 -9z" fill="#1a9f61"/>
<path d="M875 1493 c-16 -16 -85 -80 -152 -142 l-123 -114 0 -202 0 -203 148 -136 147 -136 208 0 208 0 144 136 145 136 0 206 -1 207 -142 131 -142 131 -205 7 -205 8 -30 -29z m558 -138 l137 -129 -1 -191 0 -190 -137 -127 -137 -128 -191 0 -191 0 -137 126 c-75 70 -136 130 -136 134 0 4 -2 89 -5 189 l-4 181 27 30 c15 16 79 76 142 135 l115 106 191 -3 190 -3 137 -130z" fill="#1a9f61"/>
<path d="M1016 1414 c5 -19 4 -25 -5 -20 -6 4 -11 1 -11 -6 0 -9 -3 -9 -10 2 -7 11 -10 11 -10 2 0 -8 -5 -10 -12 -6 -8 5 -9 2 -5 -10 4 -10 7 -23 7 -29 0 -6 6 -3 13 8 10 12 22 16 41 13 33 -7 37 -1 25 42 l-8 35 2 -32 c2 -18 0 -30 -5 -27 -4 3 -8 14 -8 24 0 10 -5 22 -10 25 -7 4 -8 -3 -4 -21z" fill="#1a9f61"/>
<path d="M1142 1415 c-10 -12 -18 -13 -33 -4 -11 5 -25 8 -32 5 -7 -2 -4 -5 6 -5 9 -1 17 -5 17 -10 0 -5 -8 -12 -17 -14 -10 -3 -4 -5 14 -6 17 0 33 -7 36 -13 3 -10 7 -10 21 1 14 12 19 11 36 -4 19 -17 20 -17 30 9 14 37 13 46 -6 46 -13 0 -15 -6 -9 -27 5 -23 4 -25 -9 -14 -8 7 -18 21 -21 32 -7 23 -15 23 -33 4z" fill="#1a9f61"/>
<path d="M1265 1392 c-11 -11 -4 -20 25 -32 17 -7 29 -15 26 -17 -2 -2 -18 3 -35 11 -16 9 -36 16 -43 16 -7 -1 3 -10 23 -20 20 -11 39 -26 42 -35 4 -8 13 -15 22 -15 8 0 15 -4 15 -8 0 -4 14 -13 31 -19 31 -12 69 -1 69 20 0 4 -12 0 -27 -10 l-28 -17 19 22 c19 22 10 32 -11 11 -9 -9 -16 -8 -28 4 -13 14 -14 21 -4 39 11 22 11 22 -15 -2 -18 -16 -25 -19 -21 -8 4 10 -2 22 -17 33 l-23 17 24 -7 c14 -4 21 -3 17 3 -7 11 -53 22 -61 14z" fill="#1a9f61"/>
<path d="M894 1365 c14 -22 15 -25 1 -25 -8 0 -15 -4 -15 -10 0 -13 27 -13 35 -1 7 12 -15 61 -28 61 -5 0 -2 -11 7 -25z" fill="#1a9f61"/>
<path d="M930 1367 c0 -8 7 -18 16 -21 11 -4 14 -1 12 11 -4 21 -28 30 -28 10z" fill="#1a9f61"/>
<path d="M842 1313 c2 -9 11 -17 21 -19 20 -3 22 7 5 24 -17 17 -30 15 -26 -5z" fill="#1a9f61"/>
<path d="M795 1310 c3 -5 1 -10 -6 -10 -7 0 -5 -8 6 -20 10 -11 13 -20 7 -20 -7 0 -12 -7 -12 -15 0 -8 -9 -15 -20 -15 -22 0 -27 -25 -7 -34 6 -4 -4 -4 -23 -2 l-35 5 30 -14 c26 -12 31 -12 40 2 6 9 17 24 26 33 25 26 28 43 11 63 -17 19 -3 23 18 5 8 -7 6 -3 -4 10 -19 22 -43 32 -31 12z" fill="#1a9f61"/>
<path d="M1013 1259 c-2 -17 0 -18 23 -3 13 9 24 17 24 18 0 0 -10 2 -23 2 -16 1 -23 -4 -24 -17z" fill="#1a9f61"/>
<path d="M1075 1270 c4 -6 11 -8 16 -5 14 9 11 15 -7 15 -8 0 -12 -5 -9 -10z" fill="#1a9f61"/>
<path d="M1130 1270 c0 -5 5 -10 11 -10 5 0 7 5 4 10 -3 6 -8 10 -11 10 -2 0 -4 -4 -4 -10z" fill="#1a9f61"/>
<path d="M1186 1257 c3 -10 9 -15 12 -12 3 3 0 11 -7 18 -10 9 -11 8 -5 -6z" fill="#1a9f61"/>
<path d="M1228 1247 c-15 -12 -13 -14 13 -26 16 -7 29 -20 29 -29 0 -13 2 -14 13 -3 10 11 9 14 -1 18 -9 4 -10 8 -2 18 8 9 8 15 0 20 -5 3 -13 -1 -16 -9 -3 -9 -10 -13 -16 -10 -5 3 -7 12 -4 20 6 17 6 17 -16 1z" fill="#1a9f61"/>
<path d="M1406 1251 c-9 -13 44 -101 60 -101 8 0 14 5 14 10 0 6 -7 10 -15 10 -18 0 -19 12 -3 28 10 10 8 14 -10 19 -17 4 -20 9 -12 18 8 9 6 14 -6 19 -20 8 -22 8 -28 -3z" fill="#1a9f61"/>
<path d="M932 1212 c-30 -34 -18 -43 13 -10 14 15 21 29 17 31 -4 2 -17 -7 -30 -21z" fill="#1a9f61"/>
<path d="M1082 1205 c3 -14 1 -25 -3 -25 -5 0 -9 -16 -9 -35 0 -19 5 -35 10 -35 6 0 10 -5 10 -11 0 -5 -4 -7 -10 -4 -11 7 -14 -134 -4 -172 7 -27 48 -32 58 -7 3 9 6 72 6 140 0 101 -3 124 -14 124 -8 0 -17 -10 -19 -22 -2 -13 -5 -2 -6 25 0 27 -6 47 -12 47 -7 0 -9 -10 -7 -25z m25 -97 c-3 -8 -6 -5 -6 6 -1 11 2 17 5 13 3 -3 4 -12 1 -19z m-20 -120 c-2 -18 -4 -4 -4 32 0 36 2 50 4 33 2 -18 2 -48 0 -65z m25 -53 c3 -14 1 -25 -3 -25 -5 0 -9 11 -9 25 0 14 2 25 4 25 2 0 6 -11 8 -25z" fill="#1a9f61"/>
<path d="M1110 1210 c0 -13 7 -20 20 -20 24 0 27 25 4 34 -23 9 -24 8 -24 -14z" fill="#1a9f61"/>
<path d="M1061 1204 c0 -11 3 -14 6 -6 3 7 2 16 -1 19 -3 4 -6 -2 -5 -13z" fill="#1a9f61"/>
<path d="M732 1158 c-18 -18 -14 -32 5 -17 15 12 16 12 10 -3 -3 -10 -2 -18 3 -18 12 0 13 37 2 44 -5 3 -14 0 -20 -6z" fill="#1a9f61"/>
<path d="M1477 1143 c-14 -3 -17 -13 -15 -36 3 -34 24 -48 34 -22 9 21 -5 33 -16 15 -8 -12 -10 -10 -10 8 0 15 6 22 19 22 11 0 23 5 26 10 6 10 -6 11 -38 3z" fill="#1a9f61"/>
<path d="M723 1100 c9 -6 15 -15 12 -21 -4 -5 -1 -9 5 -9 20 0 6 35 -15 38 -18 3 -19 2 -2 -8z" fill="#1a9f61"/>
<path d="M683 1020 c-1 -11 2 -20 8 -20 5 0 9 5 9 10 0 6 14 10 30 10 44 0 37 -16 -10 -24 -24 -4 -38 -11 -35 -16 4 -6 11 -8 16 -5 5 4 9 1 9 -4 0 -6 -4 -11 -9 -11 -5 0 -7 -9 -4 -20 6 -23 28 -27 37 -5 3 8 0 15 -6 15 -6 0 -9 2 -6 5 8 9 38 -6 32 -16 -3 -5 2 -6 10 -3 18 7 21 20 6 29 -6 4 -8 11 -4 16 3 6 3 21 0 35 -5 20 -12 24 -44 24 -31 0 -38 -4 -39 -20z" fill="#1a9f61"/>
<path d="M1447 1028 c3 -6 21 -7 40 -3 24 4 33 3 28 -4 -3 -6 -1 -11 4 -11 6 0 11 6 11 14 0 10 -13 14 -45 14 -24 -1 -42 -5 -38 -10z" fill="#1a9f61"/>
<path d="M1483 993 c9 -2 25 -2 35 0 9 3 1 5 -18 5 -19 0 -27 -2 -17 -5z" fill="#1a9f61"/>
<path d="M1440 983 c0 -5 12 -14 28 -21 l27 -11 -32 5 c-19 3 -33 1 -33 -4 0 -13 44 -23 67 -16 15 5 16 4 3 -6 -13 -10 -13 -11 0 -8 8 3 15 16 15 31 2 22 -2 27 -21 27 -12 0 -29 3 -38 6 -9 3 -16 2 -16 -3z" fill="#1a9f61"/>
<path d="M960 929 c0 -3 14 -9 30 -11 21 -3 27 -1 20 6 -11 11 -50 16 -50 5z" fill="#1a9f61"/>
<path d="M1041 924 c0 -11 3 -14 6 -6 3 7 2 16 -1 19 -3 4 -6 -2 -5 -13z" fill="#1a9f61"/>
<path d="M1175 930 c-3 -6 1 -7 9 -4 18 7 21 14 7 14 -6 0 -13 -4 -16 -10z" fill="#1a9f61"/>
<path d="M745 909 c-22 -11 -30 -16 -17 -13 12 3 22 1 22 -5 0 -6 -8 -11 -17 -12 -11 0 -13 -3 -5 -6 6 -2 10 -8 7 -12 -2 -5 3 -17 11 -27 9 -10 12 -13 8 -5 -4 9 -3 12 4 7 6 -4 9 -13 5 -21 -6 -18 22 -21 33 -3 5 7 3 8 -7 3 -12 -8 -12 -6 0 8 15 18 26 23 16 7 -9 -15 11 -12 23 3 17 21 -1 36 -36 32 l-33 -4 23 20 23 21 -22 -5 c-13 -3 -23 -1 -23 3 0 5 10 10 23 12 12 2 18 6 12 9 -5 4 -28 -2 -50 -12z" fill="#1a9f61"/>
<path d="M1423 916 c3 -8 -1 -17 -10 -20 -9 -4 -13 -13 -9 -22 3 -8 2 -12 -4 -9 -6 3 -10 2 -10 -2 0 -5 14 -17 31 -27 26 -15 33 -16 44 -5 8 8 15 21 17 29 2 8 9 21 17 29 12 13 9 17 -20 27 -46 17 -62 17 -56 0z" fill="#1a9f61"/>
<path d="M1037 873 c-27 -4 -53 -36 -42 -53 3 -5 -1 -12 -9 -17 -8 -4 48 -8 124 -8 114 0 135 2 117 12 -12 7 -16 12 -10 13 26 0 -9 50 -36 51 -95 5 -119 5 -144 2z" fill="#1a9f61"/>
<path d="M1360 831 c0 -13 62 -61 72 -55 4 3 6 10 2 15 -3 5 -10 6 -16 3 -6 -4 -8 -2 -5 3 4 6 0 16 -8 23 -11 9 -15 9 -15 1 0 -7 -5 -9 -10 -6 -6 4 -8 11 -5 16 4 5 1 9 -4 9 -6 0 -11 -4 -11 -9z" fill="#1a9f61"/>
<path d="M827 812 c-10 -10 -14 -22 -10 -26 5 -4 2 -6 -6 -4 -7 2 -16 -3 -18 -9 -4 -11 15 -18 39 -14 4 0 5 -6 2 -14 -11 -27 22 -16 45 16 22 29 22 31 4 44 -15 11 -21 11 -38 -3 -19 -16 -19 -16 -6 1 19 24 8 32 -12 9z" fill="#1a9f61"/>
<path d="M1345 801 c6 -11 4 -13 -8 -8 -24 9 -21 -12 6 -42 l22 -26 -22 19 c-27 23 -31 6 -5 -17 17 -16 20 -15 40 6 l22 23 -32 30 c-17 16 -27 23 -23 15z" fill="#1a9f61"/>
<path d="M881 745 c-24 -41 -12 -47 18 -7 11 15 21 21 21 14 0 -7 5 -10 10 -7 15 9 12 -7 -5 -29 -8 -11 -15 -25 -15 -30 0 -6 5 -3 11 7 6 9 14 15 20 12 5 -4 9 0 9 7 0 9 3 9 10 -2 6 -9 10 -11 10 -3 0 7 7 10 15 7 10 -4 15 0 15 10 0 14 -32 34 -65 40 -5 1 -15 5 -22 9 -7 4 -19 -7 -32 -28z" fill="#1a9f61"/>
<path d="M1290 769 c0 -6 9 -24 21 -40 11 -16 15 -29 9 -29 -6 0 -13 7 -16 15 -5 13 -9 13 -23 3 -14 -12 -15 -11 -2 5 21 27 2 40 -40 26 -19 -7 -35 -13 -37 -14 -1 -1 4 -19 12 -41 8 -21 15 -34 15 -27 1 6 -3 23 -9 37 -8 21 -6 26 6 26 8 0 13 -4 10 -9 -4 -5 -2 -21 3 -34 8 -19 15 -24 31 -20 12 3 24 12 27 19 2 7 11 10 18 8 23 -9 25 13 5 39 -22 28 -26 42 -8 31 7 -4 8 -3 4 4 -9 15 -26 15 -26 1z" fill="#1a9f61"/>
<path d="M901 722 c-17 -31 -13 -40 5 -14 9 13 14 26 11 29 -3 2 -10 -4 -16 -15z" fill="#1a9f61"/>
<path d="M1007 703 c-8 -48 -3 -52 10 -8 6 19 8 37 3 40 -4 2 -10 -12 -13 -32z" fill="#1a9f61"/>
<path d="M1150 698 c0 -18 5 -40 11 -48 8 -12 9 -10 4 7 -3 12 -1 24 5 28 7 4 14 -2 17 -14 3 -12 9 -21 13 -21 4 0 3 18 -2 40 -8 29 -16 40 -29 40 -15 0 -19 -7 -19 -32z" fill="#1a9f61"/>
<path d="M1038 685 c-5 -39 7 -34 17 8 4 16 3 27 -3 27 -5 0 -12 -16 -14 -35z" fill="#1a9f61"/>
<path d="M1086 704 c-13 -34 -7 -64 14 -64 11 0 20 6 21 13 0 6 2 24 3 40 1 19 -3 27 -15 27 -9 0 -20 -7 -23 -16z" fill="#1a9f61"/>
<path d="M930 692 c0 -11 20 -29 34 -32 10 -2 26 19 26 35 0 5 -5 4 -12 -3 -7 -7 -17 -8 -30 -1 -10 5 -18 6 -18 1z" fill="#1a9f61"/>
<path d="M1849 1079 c-9 -17 -8 -25 4 -36 13 -14 15 -11 14 21 -1 42 -2 43 -18 15z" fill="#1a9f61"/>
<path d="M1917 1093 c-12 -11 -8 -43 10 -76 9 -18 18 -27 21 -19 2 7 -3 24 -12 37 -20 30 -20 45 -1 45 8 0 15 5 15 10 0 11 -23 14 -33 3z" fill="#1a9f61"/>
<path d="M165 1080 c-11 -17 3 -25 19 -11 27 23 29 -10 2 -38 -34 -36 -33 -41 12 -40 23 1 28 3 15 6 -29 5 -29 19 -2 33 30 16 22 54 -13 58 -14 2 -29 -2 -33 -8z" fill="#1a9f61"/>
<path d="M250 1069 c-25 -46 15 -108 48 -75 15 15 19 66 7 86 -11 17 -44 11 -55 -11z m44 -5 c7 -19 -3 -64 -14 -64 -13 0 -22 38 -15 60 8 24 21 26 29 4z" fill="#1a9f61"/>
<path d="M337 1083 c-12 -12 -7 -80 7 -92 7 -6 21 -9 29 -5 22 8 33 70 17 89 -13 16 -42 20 -53 8z m43 -32 c0 -26 -10 -51 -21 -51 -5 0 -9 16 -9 35 0 24 5 35 15 35 8 0 15 -9 15 -19z" fill="#1a9f61"/>
<path d="M420 1075 c-14 -17 0 -21 17 -4 8 8 13 7 18 -1 4 -7 1 -17 -6 -22 -11 -7 -11 -11 -1 -15 6 -2 12 -11 12 -19 0 -17 -27 -19 -33 -1 -2 6 -8 9 -13 4 -4 -4 0 -15 9 -25 28 -27 52 -4 52 49 0 37 -3 44 -21 47 -11 2 -27 -4 -34 -13z" fill="#1a9f61"/>
<path d="M1780 1088 c1 -2 7 -25 15 -53 14 -50 14 -50 14 -13 1 41 -7 68 -20 68 -5 0 -9 -1 -9 -2z" fill="#1a9f61"/>
<path d="M1986 1074 c-4 -9 -1 -22 5 -30 7 -9 7 -18 0 -33 -16 -29 -14 -31 19 -31 17 0 30 5 30 11 0 6 -9 8 -20 4 -22 -7 -27 9 -10 35 5 9 5 19 -1 27 -6 7 -8 17 -4 23 3 5 2 10 -3 10 -6 0 -13 -7 -16 -16z" fill="#1a9f61"/>
<path d="M1720 1034 c0 -4 10 -15 22 -25 23 -21 17 -25 -13 -9 -15 8 -19 7 -19 -5 0 -9 9 -15 24 -15 33 0 39 12 20 38 -14 21 -34 30 -34 16z" fill="#1a9f61"/>
<path d="M1847 1014 c-4 -4 -7 -13 -7 -21 0 -15 46 -18 55 -3 3 6 -3 10 -14 10 -10 0 -21 5 -23 11 -2 5 -7 7 -11 3z" fill="#1a9f61"/>
<path d="M256 779 c-14 -11 -26 -31 -26 -43 0 -26 29 -56 53 -56 26 0 20 19 -8 30 -33 13 -32 36 5 55 37 19 54 19 70 0 10 -12 10 -18 1 -29 -13 -16 2 -32 19 -21 14 9 13 58 -2 73 -19 19 -82 14 -112 -9z" fill="#1a9f61"/>
<path d="M1826 759 c-9 -23 -16 -43 -14 -44 2 -2 33 -15 70 -28 l66 -26 16 40 c19 46 19 49 6 49 -6 0 -16 -11 -22 -25 -6 -14 -19 -25 -30 -25 -21 0 -22 8 -8 44 13 35 -12 36 -28 1 -19 -41 -47 -30 -31 13 6 15 6 29 1 34 -6 6 -16 -8 -26 -33z" fill="#1a9f61"/>
<path d="M333 670 c-64 -39 -48 -110 24 -110 25 0 43 8 64 29 34 35 36 54 9 81 -25 25 -56 25 -97 0z m82 -34 c0 -27 -47 -60 -74 -51 -46 14 -9 78 43 73 23 -2 31 -8 31 -22z" fill="#1a9f61"/>
<path d="M1776 664 c-9 -8 -16 -29 -16 -45 0 -22 8 -34 33 -49 51 -31 83 -26 111 18 l24 37 -35 18 c-34 18 -35 18 -48 0 -10 -13 -10 -21 -3 -28 7 -7 12 -6 15 3 6 16 20 15 27 -3 8 -22 -22 -47 -48 -39 -28 8 -56 34 -56 51 0 7 11 19 25 25 14 6 25 15 25 20 0 14 -38 9 -54 -8z" fill="#1a9f61"/>
<path d="M420 551 c-30 -27 -52 -52 -47 -57 4 -4 17 1 30 12 50 44 59 47 28 7 -41 -51 -34 -72 15 -43 50 29 60 25 22 -9 -53 -47 -24 -47 36 0 31 24 56 47 56 52 0 18 -31 17 -70 -3 -23 -12 -44 -20 -46 -18 -2 2 11 21 28 42 26 32 29 40 17 51 -12 12 -22 7 -69 -34z" fill="#1a9f61"/>
<path d="M1697 562 c-15 -16 -27 -32 -27 -38 0 -5 24 -28 54 -51 l53 -42 32 33 c17 17 31 35 31 39 0 14 -24 6 -47 -15 -18 -16 -26 -19 -35 -10 -9 9 -8 16 5 30 17 19 23 42 10 42 -4 0 -17 -9 -29 -21 -27 -25 -54 -17 -31 9 39 46 25 66 -16 24z" fill="#1a9f61"/>
<path d="M781 509 c-26 -46 -19 -59 31 -59 27 0 58 31 58 57 0 10 -48 43 -63 43 -2 0 -14 -19 -26 -41z m58 7 c15 -18 -2 -56 -24 -56 -21 0 -26 16 -14 44 14 30 22 32 38 12z" fill="#1a9f61"/>
<path d="M1376 541 c-3 -4 -1 -23 4 -41 l10 -33 -29 27 c-40 39 -56 26 -31 -25 11 -21 25 -39 30 -39 6 0 3 15 -6 33 l-16 32 29 -28 c34 -32 45 -27 31 14 -14 40 -4 48 12 9 7 -16 16 -30 21 -30 13 0 11 6 -11 50 -20 39 -33 49 -44 31z" fill="#1a9f61"/>
<path d="M887 459 l-29 -40 28 7 c20 5 30 2 40 -11 8 -10 17 -16 20 -12 11 10 -6 97 -19 97 -7 0 -25 -19 -40 -41z m43 -4 c0 -8 -4 -15 -10 -15 -5 0 -10 7 -10 15 0 8 5 15 10 15 6 0 10 -7 10 -15z" fill="#1a9f61"/>
<path d="M1247 493 c-4 -3 -7 -27 -7 -52 0 -25 4 -41 8 -35 12 18 45 26 53 12 4 -7 11 -9 15 -6 6 7 -46 87 -57 88 -3 0 -9 -3 -12 -7z m33 -44 c0 -5 -4 -9 -10 -9 -5 0 -10 7 -10 16 0 8 5 12 10 9 6 -3 10 -10 10 -16z" fill="#1a9f61"/>
<path d="M528 444 c-21 -25 -38 -50 -38 -55 0 -17 18 -9 38 16 27 34 36 32 17 -5 -30 -57 -14 -65 43 -22 l37 27 -29 -38 c-15 -21 -25 -41 -21 -45 7 -7 95 86 95 101 0 22 -35 17 -71 -12 -45 -37 -47 -35 -19 20 21 40 20 60 -3 58 -7 0 -29 -21 -49 -45z" fill="#1a9f61"/>
<path d="M986 475 c-10 -26 -7 -90 3 -79 5 5 11 20 14 34 4 21 4 20 6 -7 1 -41 23 -43 38 -5 l11 27 1 -33 c2 -50 21 -28 21 24 0 52 -24 62 -35 14 -9 -39 -23 -38 -27 2 -3 35 -22 48 -32 23z" fill="#1a9f61"/>
<path d="M1101 458 c1 -13 5 -36 9 -53 7 -29 8 -29 10 10 l2 40 10 -32 c13 -40 38 -44 39 -5 l1 27 11 -27 c16 -41 23 -34 19 17 -5 54 -27 61 -41 13 l-9 -33 -12 33 c-14 37 -41 44 -39 10z" fill="#1a9f61"/>
<path d="M1586 462 c-3 -5 18 -32 47 -60 l52 -51 33 29 c38 32 27 50 -14 23 l-27 -17 -36 42 c-37 43 -46 48 -55 34z" fill="#1a9f61"/>
<path d="M666 366 c-40 -69 -31 -106 26 -106 23 0 34 9 58 47 29 46 38 73 23 73 -5 0 -21 -22 -38 -48 -47 -74 -90 -52 -46 24 23 38 26 54 12 54 -5 0 -21 -20 -35 -44z" fill="#1a9f61"/>
<path d="M1497 404 c-7 -8 72 -114 85 -114 7 0 37 16 67 36 1 2 0 8 -4 14 -5 8 -14 7 -31 -4 -13 -9 -25 -16 -28 -16 -3 0 -19 20 -37 45 -32 45 -40 51 -52 39z" fill="#1a9f61"/>
<path d="M1417 373 c-31 -8 -40 -50 -20 -92 23 -46 61 -61 97 -37 37 23 35 68 -3 107 -29 29 -38 31 -74 22z m58 -39 c9 -9 15 -28 13 -43 -4 -36 -46 -36 -67 0 -27 48 15 82 54 43z" fill="#1a9f61"/>
<path d="M782 298 c-25 -70 -26 -78 -13 -78 5 0 18 21 27 47 l19 48 10 -55 c7 -35 15 -55 24 -55 13 0 48 80 50 113 2 25 -18 11 -30 -23 -15 -41 -29 -46 -29 -11 0 31 -17 76 -28 76 -5 0 -18 -28 -30 -62z" fill="#1a9f61"/>
<path d="M1272 318 c-17 -17 -15 -79 4 -106 27 -38 104 -21 104 24 0 21 -18 17 -30 -6 -14 -27 -36 -25 -56 5 -30 46 6 101 43 64 8 -8 13 -7 18 1 16 26 -59 42 -83 18z" fill="#1a9f61"/>
<path d="M912 262 c-15 -70 -15 -82 -2 -82 9 0 20 35 35 108 5 24 3 32 -7 32 -9 0 -18 -21 -26 -58z" fill="#1a9f61"/>
<path d="M964 311 c-10 -11 -2 -21 16 -21 20 0 21 -4 14 -61 -6 -50 -4 -61 7 -57 8 2 15 15 17 29 8 79 12 87 38 87 27 0 55 -40 64 -91 7 -40 24 -34 31 10 3 21 10 48 17 60 15 27 15 43 2 43 -6 0 -17 -14 -24 -32 l-14 -32 -16 31 c-15 30 -19 31 -82 35 -36 1 -68 1 -70 -1z" fill="#1a9f61"/>
</g>
</svg>